3.0Hz3min_grf.mot
version=1
nRows=10
nColumns 19
inDegrees=yes
endheader
time	1_ground_force_vx	1_ground_force_vy	1_ground_force_vz	1_ground_force_px	1_ground_force_py	1_ground_force_pz	1_ground_torque_x	1_ground_torque_y	1_ground_torque_z	2_ground_force_vx	2_ground_force_vy	2_ground_force_vz	2_ground_force_px	2_ground_force_py	2_ground_force_pz	2_ground_torque_x	2_ground_torque_y	2_ground_torque_z
            1.253500	           -1.726840	          334.238979	           -4.799235	           -0.173310	            0.006315	           -0.424181	           -0.006746	            1.305666	           -0.018748	            3.049471	          258.913213	            4.770236	           -0.186677	            0.005932	           -0.731979	           -0.002704	           -0.229592	           -0.004230
            1.254000	           -1.679345	          329.550704	           -4.498455	           -0.173078	            0.006315	           -0.424207	           -0.006690	            1.312820	           -0.017920	            3.490230	          253.575750	            4.375577	           -0.186382	            0.005932	           -0.731623	           -0.004384	           -0.318498	           -0.005496
            1.254500	           -1.815434	          325.403418	           -4.240756	           -0.173357	            0.006313	           -0.423791	           -0.008435	            1.511863	           -0.019703	            3.411714	          249.340860	            4.125864	           -0.186886	            0.005928	           -0.731023	           -0.005079	           -0.371184	           -0.006142
            1.255000	           -1.768619	          319.454825	           -4.312234	           -0.172694	            0.006318	           -0.424943	           -0.009287	            1.677493	           -0.022644	            3.518541	          245.659571	            3.737258	           -0.186823	            0.005929	           -0.731395	           -0.004995	           -0.348760	           -0.005306
            1.255500	           -1.629144	          314.405644	           -3.921515	           -0.172474	            0.006318	           -0.424807	           -0.009513	            1.835896	           -0.022899	            3.435352	          242.713864	            3.445217	           -0.186820	            0.005929	           -0.731385	           -0.003778	           -0.266929	           -0.003789
            1.256000	           -1.582511	          310.079276	           -3.940180	           -0.172599	            0.006317	           -0.424747	           -0.008045	            1.576348	           -0.020031	            3.449309	          238.846726	            3.431418	           -0.186800	            0.005931	           -0.731844	           -0.002187	           -0.151463	           -0.002176
            1.256500	           -1.489107	          305.030479	           -3.641059	           -0.172277	            0.006318	           -0.424795	           -0.006234	            1.276980	           -0.015243	            3.230846	          234.427660	            3.040324	           -0.186589	            0.005930	           -0.731281	           -0.001237	           -0.089788	           -0.001164
            1.257000	           -1.488006	          299.622312	           -3.618392	           -0.172251	            0.006321	           -0.425528	           -0.005340	            1.075241	           -0.012985	            3.662464	          231.666980	            3.030288	           -0.186935	            0.005930	           -0.731610	           -0.002987	           -0.188972	           -0.002472
            1.257500	           -1.486011	          294.933438	           -3.179930	           -0.172235	            0.006321	           -0.425497	           -0.005792	            1.149503	           -0.012394	            3.773903	          226.696980	            2.543227	           -0.186522	            0.005929	           -0.730870	           -0.004333	           -0.260307	           -0.002920
            1.258000	           -1.027184	          291.508903	           -3.287465	           -0.172135	            0.006315	           -0.424290	           -0.005253	            1.490759	           -0.016812	            3.739517	          223.199324	            2.155338	           -0.186481	            0.005928	           -0.730694	           -0.005373	           -0.320672	           -0.003097
